<mxfile host="app.diagrams.net" modified="2023-09-12T23:00:10.910Z" agent="Mozilla/5.0 (Windows NT 10.0; Win64; x64) AppleWebKit/537.36 (KHTML, like Gecko) Chrome/116.0.0.0 Safari/537.36" etag="TP1qOY2OFkuY5xnqeVUg" version="21.7.4" type="github">
  <diagram name="Page-1" id="2udUC88HVRYD_KpREyou">
    <mxGraphModel dx="1114" dy="616" grid="1" gridSize="10" guides="1" tooltips="1" connect="1" arrows="1" fold="1" page="1" pageScale="1" pageWidth="850" pageHeight="1100" background="#D4E1F5" math="0" shadow="0">
      <root>
        <mxCell id="0" />
        <mxCell id="1" parent="0" />
        <mxCell id="rDeJcTSuEco-DIoqhOzY-9" value="&lt;font size=&quot;1&quot; style=&quot;&quot; face=&quot;Times New Roman&quot;&gt;&lt;b style=&quot;font-size: 24px;&quot;&gt;DATABASE&lt;/b&gt;&lt;/font&gt;" style="swimlane;fontStyle=0;childLayout=stackLayout;horizontal=1;startSize=30;horizontalStack=0;resizeParent=1;resizeParentMax=0;resizeLast=0;collapsible=1;marginBottom=0;whiteSpace=wrap;html=1;" vertex="1" parent="1">
          <mxGeometry x="270" y="380" width="340" height="60" as="geometry" />
        </mxCell>
        <mxCell id="rDeJcTSuEco-DIoqhOzY-10" value="&lt;font face=&quot;Times New Roman&quot; style=&quot;font-size: 20px;&quot;&gt;- db: SQLAlchemy instance&lt;/font&gt;" style="text;strokeColor=none;fillColor=none;align=left;verticalAlign=middle;spacingLeft=4;spacingRight=4;overflow=hidden;points=[[0,0.5],[1,0.5]];portConstraint=eastwest;rotatable=0;whiteSpace=wrap;html=1;" vertex="1" parent="rDeJcTSuEco-DIoqhOzY-9">
          <mxGeometry y="30" width="340" height="30" as="geometry" />
        </mxCell>
        <mxCell id="rDeJcTSuEco-DIoqhOzY-13" value="&lt;h1 style=&quot;margin:0px;margin-top:4px;text-align:center;&quot;&gt;&lt;b&gt;&lt;font style=&quot;&quot; face=&quot;Times New Roman&quot;&gt;API CONTROLLER&lt;/font&gt;&lt;/b&gt;&lt;/h1&gt;&lt;hr size=&quot;1&quot;&gt;&lt;blockquote style=&quot;margin: 0px 0px 0px 4px; font-size: 20px; line-height: 150%;&quot;&gt;&lt;div style=&quot;text-align: justify; line-height: 150%;&quot;&gt;&lt;span style=&quot;font-family: &amp;quot;Times New Roman&amp;quot;;&quot;&gt;+ show_records(): list[Person]&lt;/span&gt;&lt;/div&gt;&lt;font style=&quot;font-size: 20px;&quot; face=&quot;Times New Roman&quot;&gt;&lt;div style=&quot;text-align: justify; line-height: 150%;&quot;&gt;+ create_record(data: dict): str&lt;/div&gt;&lt;/font&gt;&lt;font style=&quot;font-size: 20px;&quot; face=&quot;Times New Roman&quot;&gt;&lt;div style=&quot;text-align: justify; line-height: 150%;&quot;&gt;+ get_record(user_id: int): Person&lt;/div&gt;&lt;/font&gt;&lt;font style=&quot;font-size: 20px;&quot; face=&quot;Times New Roman&quot;&gt;&lt;div style=&quot;text-align: justify; line-height: 150%;&quot;&gt;+ update_record(user_id: int, data: dict): str&amp;nbsp;&lt;/div&gt;&lt;/font&gt;&lt;font style=&quot;font-size: 20px;&quot; face=&quot;Times New Roman&quot;&gt;&lt;div style=&quot;text-align: justify; line-height: 150%;&quot;&gt;+ delete_record(user_id: int): str&lt;/div&gt;&lt;/font&gt;&lt;/blockquote&gt;&lt;hr size=&quot;1&quot;&gt;&lt;p style=&quot;margin:0px;margin-left:4px;&quot;&gt;&lt;font style=&quot;font-size: 20px;&quot; face=&quot;Times New Roman&quot;&gt;&lt;b&gt;- Person: list[Person] &lt;/b&gt;&lt;/font&gt;&lt;br&gt;&lt;/p&gt;" style="verticalAlign=top;align=left;overflow=fill;fontSize=12;fontFamily=Helvetica;html=1;whiteSpace=wrap;labelBackgroundColor=default;" vertex="1" parent="1">
          <mxGeometry x="440" y="20" width="380" height="260" as="geometry" />
        </mxCell>
        <mxCell id="rDeJcTSuEco-DIoqhOzY-14" value="&lt;h1 style=&quot;margin:0px;margin-top:4px;text-align:center;&quot;&gt;&lt;b&gt;&lt;font style=&quot;&quot; face=&quot;Times New Roman&quot;&gt;PERSON&lt;/font&gt;&lt;/b&gt;&lt;/h1&gt;&lt;hr size=&quot;1&quot;&gt;&lt;blockquote style=&quot;margin: 0px 0px 0px 4px; font-size: 20px; line-height: 150%;&quot;&gt;&lt;div style=&quot;text-align: justify; line-height: 150%;&quot;&gt;- id: int &lt;br&gt;&lt;/div&gt;&lt;font style=&quot;font-size: 20px;&quot; face=&quot;Times New Roman&quot;&gt;&lt;div style=&quot;text-align: justify; line-height: 150%;&quot;&gt;- name: str     &lt;br&gt;&lt;/div&gt;&lt;/font&gt;&lt;font style=&quot;font-size: 20px;&quot; face=&quot;Times New Roman&quot;&gt;&lt;div style=&quot;text-align: justify; line-height: 150%;&quot;&gt; - email: str  &lt;br&gt;&lt;/div&gt;&lt;/font&gt;&lt;font style=&quot;font-size: 20px;&quot; face=&quot;Times New Roman&quot;&gt;&lt;div style=&quot;text-align: justify; line-height: 150%;&quot;&gt;- address: str   &lt;br&gt;&lt;/div&gt;&lt;/font&gt;&lt;font style=&quot;font-size: 20px;&quot; face=&quot;Times New Roman&quot;&gt;&lt;div style=&quot;text-align: justify; line-height: 150%;&quot;&gt;- other_details: str   &lt;br&gt;&lt;/div&gt;&lt;/font&gt;&lt;/blockquote&gt;&lt;hr size=&quot;1&quot;&gt;&lt;p style=&quot;margin:0px;margin-left:4px;&quot;&gt;&lt;font style=&quot;font-size: 20px;&quot; face=&quot;Times New Roman&quot;&gt;&lt;b&gt;+ Database  &lt;/b&gt;&lt;/font&gt;&lt;br&gt;&lt;/p&gt;" style="verticalAlign=top;align=left;overflow=fill;fontSize=12;fontFamily=Helvetica;html=1;whiteSpace=wrap;labelBackgroundColor=default;" vertex="1" parent="1">
          <mxGeometry x="30" y="20" width="380" height="260" as="geometry" />
        </mxCell>
      </root>
    </mxGraphModel>
  </diagram>
</mxfile>
